<?xml version="1.0" encoding="UTF-8" standalone="no"?>
<svg
   width="64"
   height="64"
   viewBox="0 0 16.933333 16.933333"
   version="1.1"
   id="svg8"
   inkscape:version="1.1 (c68e22c387, 2021-05-23)"
   sodipodi:docname="dagger.svg"
   xmlns:inkscape="http://www.inkscape.org/namespaces/inkscape"
   xmlns:sodipodi="http://sodipodi.sourceforge.net/DTD/sodipodi-0.dtd"
   xmlns="http://www.w3.org/2000/svg"
   xmlns:svg="http://www.w3.org/2000/svg"
   xmlns:rdf="http://www.w3.org/1999/02/22-rdf-syntax-ns#"
   xmlns:cc="http://creativecommons.org/ns#"
   xmlns:dc="http://purl.org/dc/elements/1.1/">
  <defs
     id="defs2" />
  <sodipodi:namedview
     id="base"
     pagecolor="#ffffff"
     bordercolor="#666666"
     borderopacity="1.0"
     inkscape:pageopacity="0.0"
     inkscape:pageshadow="2"
     inkscape:zoom="3.959798"
     inkscape:cx="35.986684"
     inkscape:cy="34.471456"
     inkscape:document-units="px"
     inkscape:current-layer="layer1"
     inkscape:document-rotation="0"
     showgrid="false"
     units="px"
     width="1000px"
     inkscape:pagecheckerboard="0"
     showguides="false"
     inkscape:guide-bbox="true"
     inkscape:window-width="1920"
     inkscape:window-height="1017"
     inkscape:window-x="-8"
     inkscape:window-y="-8"
     inkscape:window-maximized="1">
    <sodipodi:guide
       position="0,16.933333"
       orientation="0,64"
       id="guide822" />
    <sodipodi:guide
       position="16.933333,16.933333"
       orientation="64,0"
       id="guide824" />
    <sodipodi:guide
       position="16.933333,0"
       orientation="0,-64"
       id="guide826" />
    <sodipodi:guide
       position="0,0"
       orientation="-64,0"
       id="guide828" />
    <sodipodi:guide
       position="0,0"
       orientation="0.70710678,-0.70710678"
       id="guide830" />
    <sodipodi:guide
       position="0,16.933333"
       orientation="-0.70710678,-0.70710678"
       id="guide834" />
    <sodipodi:guide
       position="8.4666665,8.4666665"
       orientation="0,-1"
       id="guide836" />
    <sodipodi:guide
       position="0,2.1166667"
       orientation="0.70710678,-0.70710678"
       id="guide846" />
    <sodipodi:guide
       position="4.2333333,2.1166667"
       orientation="0.70710678,-0.70710678"
       id="guide850" />
    <sodipodi:guide
       position="8.4666665,12.7"
       orientation="-0.70710678,-0.70710678"
       id="guide852" />
    <sodipodi:guide
       position="8.4666665,8.4666665"
       orientation="1,0"
       id="guide856" />
    <sodipodi:guide
       position="10.583333,8.4666665"
       orientation="-0.70710678,-0.70710678"
       id="guide975" />
    <sodipodi:guide
       position="10.583333,12.7"
       orientation="-0.70710678,-0.70710678"
       id="guide1128" />
    <sodipodi:guide
       position="10.583333,8.4666664"
       orientation="1,0"
       id="guide2245" />
    <sodipodi:guide
       position="16.933333,6.35"
       orientation="0.70710678,-0.70710678"
       id="guide2394" />
    <sodipodi:guide
       position="14.816666,4.2333333"
       orientation="0,-1"
       id="guide2396" />
    <sodipodi:guide
       position="15.875,5.2916668"
       orientation="1,0"
       id="guide2398" />
    <sodipodi:guide
       position="15.875,4.2333333"
       orientation="-0.70710678,-0.70710678"
       id="guide2400" />
    <sodipodi:guide
       position="15.875,5.291667"
       orientation="0,-1"
       id="guide2402" />
    <sodipodi:guide
       position="16.933333,5.291667"
       orientation="-0.70710678,-0.70710678"
       id="guide2404" />
    <sodipodi:guide
       position="15.875,16.933333"
       orientation="-0.70710678,-0.70710678"
       id="guide3009" />
    <sodipodi:guide
       position="12.7,10.583333"
       orientation="-0.78086885,0.62469499"
       id="guide3282" />
  </sodipodi:namedview>
  <metadata
     id="metadata5">
    <rdf:RDF>
      <cc:Work
         rdf:about="">
        <dc:format>image/svg+xml</dc:format>
        <dc:type
           rdf:resource="http://purl.org/dc/dcmitype/StillImage" />
      </cc:Work>
    </rdf:RDF>
  </metadata>
  <g
     inkscape:label="Capa 1"
     inkscape:groupmode="layer"
     id="layer1">
    <path
       id="path3011"
       style="fill:#000000;fill-opacity:1;stroke:none;stroke-width:0.999999px;stroke-linecap:butt;stroke-linejoin:miter;stroke-opacity:1"
       d="M 60 0 C 60 0 55.999999 -3.7795683e-08 40 16 L 44 20 L 48 24 C 63.999999 8.0000007 64 4 64 4 L 62 2 L 60 0 z M 48 24 A 8 8 0 0 1 40 16 L 22 2 L 18 6 L 32 24 A 8 8 0 0 1 40 32 L 58 46 L 62 42 L 48 24 z M 40 32 L 32.392578 32.392578 L 0 64 C -4.7369516e-15 64 8.0000009 64.000003 40 32 z M 40 32 L 36 28 L 32 24 L 32.501953 31.498047 L 40 32 z M 32 24 C -6.0472442e-07 55.999998 4.7369516e-15 64 0 64 L 31.607422 31.607422 L 32 24 z M 55 4 A 4.9999972 4.9999972 0 0 1 58.535156 5.4648438 A 4.9999972 4.9999972 0 0 1 60 9 L 57.5 6.5 L 55 4 z M 50.523438 7.5820312 A 5.8954308 5.8954308 0 0 1 54.691406 9.3085938 A 5.8954308 5.8954308 0 0 1 56.417969 13.476562 L 53.470703 10.529297 L 50.523438 7.5820312 z M 45.365234 11.708984 A 6.9271387 6.9271387 0 0 1 50.261719 13.738281 A 6.9271387 6.9271387 0 0 1 52.291016 18.634766 L 48.828125 15.171875 L 45.365234 11.708984 z "
       transform="scale(0.26458333)" />
  </g>
</svg>
