<?xml version="1.0" encoding="UTF-8" standalone="no"?>
<svg
   width="64"
   height="64"
   viewBox="0 0 16.933333 16.933333"
   version="1.1"
   id="svg8"
   inkscape:version="1.1 (c68e22c387, 2021-05-23)"
   sodipodi:docname="en.svg"
   xmlns:inkscape="http://www.inkscape.org/namespaces/inkscape"
   xmlns:sodipodi="http://sodipodi.sourceforge.net/DTD/sodipodi-0.dtd"
   xmlns="http://www.w3.org/2000/svg"
   xmlns:svg="http://www.w3.org/2000/svg"
   xmlns:rdf="http://www.w3.org/1999/02/22-rdf-syntax-ns#"
   xmlns:cc="http://creativecommons.org/ns#"
   xmlns:dc="http://purl.org/dc/elements/1.1/">
  <defs
     id="defs2" />
  <sodipodi:namedview
     id="base"
     pagecolor="#ffffff"
     bordercolor="#666666"
     borderopacity="1.0"
     inkscape:pageopacity="0.0"
     inkscape:pageshadow="2"
     inkscape:zoom="7.919596"
     inkscape:cx="46.845824"
     inkscape:cy="38.322662"
     inkscape:document-units="px"
     inkscape:current-layer="layer1"
     inkscape:document-rotation="0"
     showgrid="false"
     units="px"
     width="1000px"
     inkscape:pagecheckerboard="0"
     showguides="false"
     inkscape:guide-bbox="true"
     inkscape:window-width="1920"
     inkscape:window-height="1017"
     inkscape:window-x="-8"
     inkscape:window-y="-8"
     inkscape:window-maximized="1">
    <sodipodi:guide
       position="0,16.933333"
       orientation="0,64"
       id="guide3850" />
    <sodipodi:guide
       position="16.933333,16.933333"
       orientation="64,0"
       id="guide3852" />
    <sodipodi:guide
       position="16.933333,0"
       orientation="0,-64"
       id="guide3854" />
    <sodipodi:guide
       position="0,0"
       orientation="-64,0"
       id="guide3856" />
    <sodipodi:guide
       position="16.933333,16.933333"
       orientation="0.70710678,-0.70710678"
       id="guide3858" />
    <sodipodi:guide
       position="8.4666665,8.4666665"
       orientation="0,-1"
       id="guide3862" />
    <sodipodi:guide
       position="8.4666665,8.4666665"
       orientation="1,0"
       id="guide3864" />
    <sodipodi:guide
       position="16.933333,4.2333322"
       orientation="-0.44721365,-0.89442716"
       id="guide830" />
    <sodipodi:guide
       position="4.2333333,12.7"
       orientation="0,-1"
       id="guide832" />
    <sodipodi:guide
       position="0,12.7"
       orientation="-0.24253561,0.9701425"
       id="guide834" />
    <sodipodi:guide
       position="0,0"
       orientation="-0.24253557,0.97014251"
       id="guide894"
       inkscape:label=""
       inkscape:locked="false"
       inkscape:color="rgb(0,0,255)" />
    <sodipodi:guide
       position="8.4666665,8.4666665"
       orientation="-0.24253557,0.97014251"
       id="guide954"
       inkscape:label=""
       inkscape:locked="false"
       inkscape:color="rgb(0,0,255)" />
    <sodipodi:guide
       position="7.4083333,9.5249997"
       orientation="1,0"
       id="guide1060" />
    <sodipodi:guide
       position="-1.1920929e-07,4.2333332"
       orientation="-0.24253557,0.97014251"
       id="guide1233"
       inkscape:label=""
       inkscape:locked="false"
       inkscape:color="rgb(0,0,255)" />
    <sodipodi:guide
       position="6.3499999,10.31875"
       orientation="1,0"
       id="guide1770" />
    <sodipodi:guide
       position="-5.9604645e-08,1.058334"
       orientation="0.70710678,-0.70710678"
       id="guide2503"
       inkscape:label=""
       inkscape:locked="false"
       inkscape:color="rgb(0,0,255)" />
    <sodipodi:guide
       position="16.933332,15.875"
       orientation="0.70710678,-0.70710678"
       id="guide2505"
       inkscape:label=""
       inkscape:locked="false"
       inkscape:color="rgb(0,0,255)" />
    <sodipodi:guide
       position="5.9604645e-08,12.170833"
       orientation="-0.44721358,-0.8944272"
       id="guide4816"
       inkscape:label=""
       inkscape:locked="false"
       inkscape:color="rgb(0,0,255)" />
    <sodipodi:guide
       position="0,11.641666"
       orientation="-0.44721358,-0.8944272"
       id="guide4818"
       inkscape:label=""
       inkscape:locked="false"
       inkscape:color="rgb(0,0,255)" />
    <sodipodi:guide
       position="16.933332,4.7624985"
       orientation="-0.44721358,-0.8944272"
       id="guide4820"
       inkscape:label=""
       inkscape:locked="false"
       inkscape:color="rgb(0,0,255)" />
    <sodipodi:guide
       position="16.933332,5.2916647"
       orientation="-0.44721358,-0.8944272"
       id="guide4822"
       inkscape:label=""
       inkscape:locked="false"
       inkscape:color="rgb(0,0,255)" />
  </sodipodi:namedview>
  <metadata
     id="metadata5">
    <rdf:RDF>
      <cc:Work
         rdf:about="">
        <dc:format>image/svg+xml</dc:format>
        <dc:type
           rdf:resource="http://purl.org/dc/dcmitype/StillImage" />
      </cc:Work>
    </rdf:RDF>
  </metadata>
  <g
     inkscape:label="Capa 1"
     inkscape:groupmode="layer"
     id="layer1">
    <path
       style="fill:#000000;stroke:none;stroke-width:0.264583px;stroke-linecap:butt;stroke-linejoin:miter;stroke-opacity:1;fill-opacity:1"
       d="M 0,4.2333333 V 16.933333 L 16.933333,12.700001 V 1.5756256e-8 Z"
       id="path11752" />
    <g
       id="g11717"
       transform="matrix(0.93749999,0,0,0.93749999,0.52916666,0.52916666)">
      <path
         style="fill:#000080;stroke:none;stroke-width:0.264583px;stroke-linecap:butt;stroke-linejoin:miter;stroke-opacity:1"
         d="m 0,4.233333 v 12.7 L 16.933333,12.700001 V 1.5756256e-8 Z"
         id="path1502" />
      <path
         id="path1095"
         style="fill:#ff0000;fill-opacity:1;stroke:none;stroke-width:0.999999px;stroke-linecap:butt;stroke-linejoin:miter;stroke-opacity:1"
         d="M 64,0 61.333984,0.66601562 40,22 45.333984,20.666016 64,2 Z M 36,7 32,8 28,9 V 29 L 0,36 v 4 4 l 28,-7 v 20 l 4,-1 4,-1 V 35 L 64,28 V 24 20 L 36,27 Z M 2.6660156,15.333984 0,16 v 2 L 18.736328,27.367188 24,26 Z M 45.263672,36.632812 40,38 61.333984,48.666016 64,48 V 46 Z M 24,42 18.666016,43.333984 0,62 v 2 l 2.6660156,-0.666016 z"
         transform="scale(0.26458333)" />
      <path
         id="path1805"
         style="fill:#f9f9f9;fill-opacity:1;stroke:none;stroke-width:0.999999px;stroke-linecap:butt;stroke-linejoin:miter;stroke-opacity:1"
         d="M 61.333984,0.66601562 58.666016,1.3339844 40,20 V 6 l -4,1 v 17 3 L 64,20 V 16 L 48,20 64,4 V 2 L 45.333984,20.666016 40,22 Z M 28,9 24,10 V 24 L 5.3339844,14.666016 2.6660156,15.333984 24,26 18.667969,27.333984 0,18 v 2 l 16,8 -16,4 v 4 l 28,-7 v -3 z m 36,19 -28,7 v 3 17 l 4,-1 V 40 L 58.666016,49.333984 61.333984,48.666016 40,38 45.332031,36.666016 64,46 V 44 L 48,36 64,32 Z M 28,37 0,44 v 4 L 16,44 0,60 v 2 L 18.666016,43.333984 24,42 2.6660156,63.333984 5.3339844,62.666016 24,44 v 14 l 4,-1 V 40 Z"
         transform="scale(0.26458333)" />
    </g>
  </g>
</svg>
