<?xml version="1.0" encoding="UTF-8" standalone="no"?>
<svg
   width="64"
   height="64"
   viewBox="0 0 16.933333 16.933333"
   version="1.1"
   id="svg8"
   inkscape:version="1.1 (c68e22c387, 2021-05-23)"
   sodipodi:docname="search.svg"
   xmlns:inkscape="http://www.inkscape.org/namespaces/inkscape"
   xmlns:sodipodi="http://sodipodi.sourceforge.net/DTD/sodipodi-0.dtd"
   xmlns="http://www.w3.org/2000/svg"
   xmlns:svg="http://www.w3.org/2000/svg"
   xmlns:rdf="http://www.w3.org/1999/02/22-rdf-syntax-ns#"
   xmlns:cc="http://creativecommons.org/ns#"
   xmlns:dc="http://purl.org/dc/elements/1.1/">
  <defs
     id="defs2" />
  <sodipodi:namedview
     id="base"
     pagecolor="#ffffff"
     bordercolor="#666666"
     borderopacity="1.0"
     inkscape:pageopacity="0.0"
     inkscape:pageshadow="2"
     inkscape:zoom="2.8"
     inkscape:cx="1.7857143"
     inkscape:cy="-22.321428"
     inkscape:document-units="px"
     inkscape:current-layer="layer1"
     inkscape:document-rotation="0"
     showgrid="false"
     units="px"
     width="1000px"
     inkscape:pagecheckerboard="0"
     showguides="false"
     inkscape:guide-bbox="true"
     inkscape:window-width="1920"
     inkscape:window-height="1017"
     inkscape:window-x="-8"
     inkscape:window-y="-8"
     inkscape:window-maximized="1">
    <sodipodi:guide
       position="0,16.933333"
       orientation="0,64"
       id="guide3850" />
    <sodipodi:guide
       position="16.933333,16.933333"
       orientation="64,0"
       id="guide3852" />
    <sodipodi:guide
       position="16.933333,0"
       orientation="0,-64"
       id="guide3854" />
    <sodipodi:guide
       position="0,0"
       orientation="-64,0"
       id="guide3856" />
    <sodipodi:guide
       position="16.933333,16.933333"
       orientation="0.70710678,-0.70710678"
       id="guide3858" />
    <sodipodi:guide
       position="0,16.933333"
       orientation="-0.70710678,-0.70710678"
       id="guide3860" />
    <sodipodi:guide
       position="8.4666665,8.4666665"
       orientation="0,-1"
       id="guide3862" />
    <sodipodi:guide
       position="8.4666665,8.4666665"
       orientation="1,0"
       id="guide3864" />
    <sodipodi:guide
       position="0,8.4666665"
       orientation="-0.70710678,-0.70710678"
       id="guide830" />
    <sodipodi:guide
       position="4.2333333,4.2333333"
       orientation="1,0"
       id="guide958" />
    <sodipodi:guide
       position="4.2333333,8.4666665"
       orientation="-0.70710678,-0.70710678"
       id="guide960" />
    <sodipodi:guide
       position="6.3499999,6.3499999"
       orientation="1,0"
       id="guide962" />
    <sodipodi:guide
       position="6.3499999,16.933333"
       orientation="-0.70710678,-0.70710678"
       id="guide964" />
    <sodipodi:guide
       position="6.3499999,8.4666665"
       orientation="-0.70710678,-0.70710678"
       id="guide1175" />
    <sodipodi:guide
       position="6.3499999,8.4666665"
       orientation="0.70710678,-0.70710678"
       id="guide1416" />
    <sodipodi:guide
       position="8.4666665,6.3499999"
       orientation="0.70710678,-0.70710678"
       id="guide1451" />
    <sodipodi:guide
       position="5.2916666,7.4083332"
       orientation="0,-1"
       id="guide1687" />
    <sodipodi:guide
       position="6.3499999,7.4083332"
       orientation="0.70710678,-0.70710678"
       id="guide1689" />
    <sodipodi:guide
       position="7.4083332,7.4083332"
       orientation="1,0"
       id="guide1691" />
    <sodipodi:guide
       position="7.4083332,6.3499999"
       orientation="0.70710678,-0.70710678"
       id="guide1693" />
    <sodipodi:guide
       position="6.3499999,6.3499999"
       orientation="0,-1"
       id="guide1695" />
  </sodipodi:namedview>
  <metadata
     id="metadata5">
    <rdf:RDF>
      <cc:Work
         rdf:about="">
        <dc:format>image/svg+xml</dc:format>
        <dc:type
           rdf:resource="http://purl.org/dc/dcmitype/StillImage" />
      </cc:Work>
    </rdf:RDF>
  </metadata>
  <g
     inkscape:label="Capa 1"
     inkscape:groupmode="layer"
     id="layer1">
    <path
       id="path988"
       style="fill:#000000;stroke:none;stroke-width:0.999999;stroke-linecap:round;stroke-linejoin:round"
       d="M 44 0 A 20 20 0 0 0 24 20 A 20 20 0 0 0 26.472656 29.527344 L 24 32 L 26 34 L 22 38 L 20 36 L 0 56 L 8 64 L 28 44 L 26 42 L 30 38 L 32 40 L 34.472656 37.527344 A 20 20 0 0 0 44 40 A 20 20 0 0 0 64 20 A 20 20 0 0 0 44 0 z M 44 4 A 15.999999 15.999999 0 0 1 60 20 A 15.999999 15.999999 0 0 1 44 36 A 15.999999 15.999999 0 0 1 28 20 A 15.999999 15.999999 0 0 1 44 4 z M 44 8 A 12 12 0 0 0 32 20 A 12 12 0 0 0 44 32 A 12 12 0 0 0 56 20 A 12 12 0 0 0 44 8 z "
       transform="scale(0.26458333)" />
  </g>
</svg>
